<mxfile host="app.diagrams.net" modified="2021-01-28T20:33:03.786Z" agent="5.0 (Windows NT 10.0; Win64; x64) AppleWebKit/537.36 (KHTML, like Gecko) Chrome/87.0.4280.141 Safari/537.36" etag="ttQAEW8z-mvOlPPRnQtO" version="14.0.0" type="github">
  <diagram id="R2lEEEUBdFMjLlhIrx00" name="Page-1">
    <mxGraphModel dx="865" dy="456" grid="1" gridSize="10" guides="1" tooltips="1" connect="1" arrows="1" fold="1" page="1" pageScale="1" pageWidth="827" pageHeight="1169" math="0" shadow="0" extFonts="Permanent Marker^https://fonts.googleapis.com/css?family=Permanent+Marker">
      <root>
        <mxCell id="0" />
        <mxCell id="1" parent="0" />
        <mxCell id="6DqZ498Wy22EHyodnlSP-1" value="" style="points=[];aspect=fixed;html=1;align=center;shadow=0;dashed=0;image;image=img/lib/allied_telesis/switch/Switch_24_port_L3.svg;" vertex="1" parent="1">
          <mxGeometry x="30" y="50" width="87.53" height="60" as="geometry" />
        </mxCell>
        <mxCell id="6DqZ498Wy22EHyodnlSP-6" value="" style="points=[];aspect=fixed;html=1;align=center;shadow=0;dashed=0;image;image=img/lib/allied_telesis/switch/Switch_24_port_L3.svg;" vertex="1" parent="1">
          <mxGeometry x="510" y="50" width="87.53" height="60" as="geometry" />
        </mxCell>
        <mxCell id="6DqZ498Wy22EHyodnlSP-7" value="" style="points=[];aspect=fixed;html=1;align=center;shadow=0;dashed=0;image;image=img/lib/allied_telesis/switch/Switch_24_port_L3.svg;" vertex="1" parent="1">
          <mxGeometry x="670" y="50" width="87.53" height="60" as="geometry" />
        </mxCell>
        <mxCell id="6DqZ498Wy22EHyodnlSP-8" value="" style="points=[];aspect=fixed;html=1;align=center;shadow=0;dashed=0;image;image=img/lib/allied_telesis/switch/Switch_24_port_L3.svg;" vertex="1" parent="1">
          <mxGeometry x="350" y="50" width="87.53" height="60" as="geometry" />
        </mxCell>
        <mxCell id="6DqZ498Wy22EHyodnlSP-9" value="" style="points=[];aspect=fixed;html=1;align=center;shadow=0;dashed=0;image;image=img/lib/allied_telesis/switch/Switch_24_port_L3.svg;" vertex="1" parent="1">
          <mxGeometry x="190" y="50" width="87.53" height="60" as="geometry" />
        </mxCell>
      </root>
    </mxGraphModel>
  </diagram>
</mxfile>
